<svg xmlns="http://www.w3.org/2000/svg" xmlns:xlink="http://www.w3.org/1999/xlink" width="500" zoomAndPan="magnify" viewBox="0 0 375 149.999998" height="200" preserveAspectRatio="xMidYMid meet" version="1.0"><defs><g/><clipPath id="a1dba013fc"><path d="M 88.425781 36.28125 L 369.667969 36.28125 L 369.667969 113.53125 L 88.425781 113.53125 Z M 88.425781 36.28125 " clip-rule="nonzero"/></clipPath><clipPath id="218b356300"><path d="M 96.019531 43.558594 L 261.800781 43.558594 L 261.800781 106.441406 L 96.019531 106.441406 Z M 96.019531 43.558594 " clip-rule="nonzero"/></clipPath></defs><g clip-path="url(#a1dba013fc)"><path stroke-linecap="butt" transform="matrix(0.750188, 0, 0, 0.748184, 88.424384, 36.279514)" fill="none" stroke-linejoin="miter" d="M 0.00186311 0.00232033 L 374.897714 0.00232033 L 374.897714 103.252337 L 0.00186311 103.252337 L 0.00186311 0.00232033 " stroke="#000000" stroke-width="2" stroke-opacity="1" stroke-miterlimit="4"/></g><g clip-path="url(#218b356300)"><path fill="#000000" d="M 96.019531 43.558594 L 261.535156 43.558594 L 261.535156 107.089844 L 96.019531 107.089844 Z M 96.019531 43.558594 " fill-opacity="1" fill-rule="nonzero"/></g><g fill="#ffffff" fill-opacity="1"><g transform="translate(112.992893, 84.797697)"><g><path d="M 3.078125 0 L 15.996094 0 L 15.996094 -2.535156 L 5.734375 -2.535156 L 5.734375 -21.125 L 3.078125 -21.125 Z M 3.078125 0 "/></g></g></g><g fill="#ffffff" fill-opacity="1"><g transform="translate(132.212286, 84.797697)"><g><path d="M 3.078125 0 L 5.734375 0 L 5.734375 -21.125 L 3.078125 -21.125 Z M 3.078125 0 "/></g></g></g><g fill="#ffffff" fill-opacity="1"><g transform="translate(143.315872, 84.797697)"><g><path d="M 3.078125 0 L 5.703125 0 L 5.703125 -16.539062 L 17.382812 0 L 19.859375 0 L 19.859375 -21.125 L 17.261719 -21.125 L 17.261719 -4.585938 L 5.582031 -21.125 L 3.078125 -21.125 Z M 3.078125 0 "/></g></g></g><g fill="#ffffff" fill-opacity="1"><g transform="translate(168.539141, 84.797697)"><g><path d="M 3.078125 0 L 5.734375 0 L 5.734375 -9.507812 L 8.753906 -9.507812 C 9.566406 -9.507812 10.292969 -9.566406 10.957031 -9.6875 L 16.417969 0 L 19.496094 0 L 13.429688 -10.652344 C 14.636719 -11.4375 15.484375 -12.644531 16.085938 -14.246094 L 18.683594 -21.125 L 15.875 -21.125 L 13.703125 -15.300781 C 12.855469 -13.007812 11.621094 -12.042969 8.753906 -12.042969 L 5.734375 -12.042969 L 5.734375 -21.125 L 3.078125 -21.125 Z M 3.078125 0 "/></g></g></g><g fill="#ffffff" fill-opacity="1"><g transform="translate(191.469471, 84.797697)"><g/></g></g><g fill="#ffffff" fill-opacity="1"><g transform="translate(201.245565, 84.797697)"><g><path d="M 10.984375 0.363281 C 16.085938 0.363281 19.164062 -2.988281 19.164062 -8.601562 L 19.164062 -21.125 L 16.507812 -21.125 L 16.507812 -8.78125 C 16.507812 -4.464844 14.605469 -2.234375 10.984375 -2.234375 C 7.394531 -2.234375 5.460938 -4.464844 5.460938 -8.78125 L 5.460938 -21.125 L 2.835938 -21.125 L 2.835938 -8.601562 C 2.835938 -2.988281 5.886719 0.363281 10.984375 0.363281 Z M 10.984375 0.363281 "/></g></g></g><g fill="#ffffff" fill-opacity="1"><g transform="translate(225.533563, 84.797697)"><g><path d="M 3.078125 0 L 5.734375 0 L 5.734375 -6.941406 L 10.230469 -6.941406 C 15 -6.941406 18.078125 -9.6875 18.078125 -14.035156 C 18.078125 -18.351562 15 -21.125 10.230469 -21.125 L 3.078125 -21.125 Z M 5.734375 -9.417969 L 5.734375 -18.589844 L 10.171875 -18.589844 C 13.582031 -18.589844 15.363281 -17.023438 15.363281 -14.003906 C 15.363281 -10.984375 13.582031 -9.417969 10.171875 -9.417969 Z M 5.734375 -9.417969 "/></g></g></g><g fill="#000000" fill-opacity="1"><g transform="translate(276.347263, 84.960222)"><g><path d="M 2.234375 0 L 8.328125 0 L 8.328125 -5.222656 L 11.136719 -5.222656 C 16.507812 -5.222656 19.917969 -8.328125 19.917969 -13.1875 C 19.917969 -18.046875 16.507812 -21.125 11.136719 -21.125 L 2.234375 -21.125 Z M 8.269531 -10.320312 L 8.269531 -15.996094 L 10.5625 -15.996094 C 12.585938 -15.996094 13.761719 -14.910156 13.761719 -13.160156 C 13.761719 -11.378906 12.585938 -10.320312 10.5625 -10.320312 Z M 8.269531 -10.320312 "/></g></g></g><g fill="#000000" fill-opacity="1"><g transform="translate(296.958645, 84.960222)"><g><path d="M 2.234375 0 L 8.328125 0 L 8.328125 -6.003906 L 10.625 -6.003906 L 13.640625 0 L 20.550781 0 L 16.660156 -7.121094 C 18.890625 -8.359375 20.160156 -10.59375 20.160156 -13.550781 C 20.160156 -18.226562 16.992188 -21.125 11.859375 -21.125 L 2.234375 -21.125 Z M 8.207031 -10.863281 L 8.207031 -16.144531 L 11.046875 -16.144531 C 12.976562 -16.144531 14.035156 -15.210938 14.035156 -13.519531 C 14.035156 -11.832031 12.976562 -10.863281 11.046875 -10.863281 Z M 8.207031 -10.863281 "/></g></g></g><g fill="#000000" fill-opacity="1"><g transform="translate(318.686605, 84.960222)"><g><path d="M 12.523438 0.453125 C 19.253906 0.453125 24.023438 -4.105469 24.023438 -10.5625 C 24.023438 -17.019531 19.253906 -21.578125 12.523438 -21.578125 C 5.792969 -21.578125 1.027344 -17.019531 1.027344 -10.5625 C 1.027344 -4.105469 5.792969 0.453125 12.523438 0.453125 Z M 7.214844 -10.5625 C 7.214844 -13.730469 9.414062 -15.933594 12.523438 -15.933594 C 15.664062 -15.933594 17.835938 -13.730469 17.835938 -10.5625 C 17.835938 -7.394531 15.664062 -5.191406 12.523438 -5.191406 C 9.414062 -5.191406 7.214844 -7.394531 7.214844 -10.5625 Z M 7.214844 -10.5625 "/></g></g></g><path fill="#000000" d="M 17.007812 102.238281 L 17.972656 103.195312 L 18.066406 103.289062 C 21.070312 106.402344 21.039062 111.414062 17.972656 114.480469 C 14.90625 117.550781 9.898438 117.582031 6.789062 114.578125 L 6.691406 114.480469 L 5.726562 113.527344 L 3.097656 110.886719 C 0 107.785156 0 102.710938 3.097656 99.597656 C 6.199219 96.5 11.28125 96.5 14.378906 99.597656 Z M 70.214844 58.570312 L 71.148438 57.636719 L 72.21875 56.5625 L 82.050781 46.722656 C 85.152344 43.625 85.152344 38.546875 82.050781 35.4375 C 78.941406 32.335938 73.871094 32.335938 70.769531 35.4375 L 60.9375 45.277344 L 58.933594 47.28125 L 53.292969 52.925781 C 50.195312 56.027344 50.195312 61.101562 53.292969 64.214844 L 58.933594 69.855469 L 59.941406 70.855469 L 70.847656 81.765625 C 73.945312 84.867188 79.015625 84.867188 82.128906 81.765625 C 85.226562 78.664062 85.226562 73.582031 82.128906 70.480469 L 71.222656 59.566406 Z M 3.550781 35.511719 L 3.550781 35.5 C 6.648438 32.398438 11.730469 32.398438 14.828125 35.5 L 81.976562 102.699219 C 85.085938 105.800781 85.085938 110.886719 81.976562 113.988281 C 78.878906 117.089844 73.804688 117.089844 70.695312 113.988281 L 3.550781 46.789062 C 0.449219 43.6875 0.449219 38.613281 3.550781 35.511719 Z M 3.453125 67.679688 C 6.550781 64.578125 11.625 64.578125 14.734375 67.679688 L 22.378906 75.328125 L 38.925781 91.882812 L 49.828125 102.796875 C 52.929688 105.898438 52.929688 110.984375 49.828125 114.085938 C 46.71875 117.183594 41.648438 117.183594 38.550781 114.085938 L 27.644531 103.171875 L 11.097656 86.617188 L 3.453125 78.964844 C 0.355469 75.867188 0.355469 70.78125 3.453125 67.679688 Z M 3.453125 67.679688 " fill-opacity="1" fill-rule="evenodd"/><path fill="#000000" d="M 68.191406 102.238281 L 67.226562 103.195312 L 67.132812 103.289062 C 64.128906 106.402344 64.160156 111.414062 67.226562 114.480469 C 70.292969 117.550781 75.300781 117.582031 78.414062 114.578125 L 78.507812 114.480469 L 79.472656 113.527344 L 82.101562 110.886719 C 85.199219 107.785156 85.199219 102.710938 82.101562 99.597656 C 79 96.5 73.917969 96.5 70.820312 99.597656 Z M 14.984375 58.570312 L 14.054688 57.636719 L 12.980469 56.5625 L 3.148438 46.722656 C 0.0507812 43.625 0.0507812 38.546875 3.148438 35.4375 C 6.257812 32.335938 11.328125 32.335938 14.429688 35.4375 L 24.261719 45.277344 L 26.265625 47.28125 L 31.90625 52.925781 C 35.003906 56.027344 35.003906 61.101562 31.90625 64.214844 L 26.265625 69.855469 L 25.257812 70.855469 L 14.351562 81.765625 C 11.253906 84.867188 6.183594 84.867188 3.074219 81.765625 C -0.0273438 78.664062 -0.0273438 73.582031 3.074219 70.480469 L 13.976562 59.566406 Z M 81.652344 35.511719 L 81.652344 35.5 C 78.550781 32.398438 73.46875 32.398438 70.371094 35.5 L 3.222656 102.699219 C 0.113281 105.800781 0.113281 110.886719 3.222656 113.988281 C 6.320312 117.089844 11.394531 117.089844 14.503906 113.988281 L 81.652344 46.789062 C 84.75 43.6875 84.75 38.613281 81.652344 35.511719 Z M 81.746094 67.679688 C 78.648438 64.578125 73.574219 64.578125 70.464844 67.679688 L 62.820312 75.328125 L 46.277344 91.882812 L 35.371094 102.796875 C 32.269531 105.898438 32.269531 110.984375 35.371094 114.085938 C 38.480469 117.183594 43.550781 117.183594 46.652344 114.085938 L 57.554688 103.171875 L 74.101562 86.617188 L 81.746094 78.964844 C 84.847656 75.867188 84.847656 70.78125 81.746094 67.679688 Z M 81.746094 67.679688 " fill-opacity="1" fill-rule="evenodd"/></svg>