<svg xmlns="http://www.w3.org/2000/svg" xmlns:xlink="http://www.w3.org/1999/xlink" width="300" zoomAndPan="magnify" viewBox="0 0 224.87999 74.999997" height="100" preserveAspectRatio="xMidYMid meet" version="1.0"><defs><g/><clipPath id="d1fd509909"><path d="M 4.121094 2.289062 L 222.230469 2.289062 L 222.230469 72.753906 L 4.121094 72.753906 Z M 4.121094 2.289062 " clip-rule="nonzero"/></clipPath><clipPath id="4a98e918b8"><path d="M 10.003906 13.160156 L 138.617188 13.160156 L 138.617188 61.949219 L 10.003906 61.949219 Z M 10.003906 13.160156 " clip-rule="nonzero"/></clipPath></defs><g clip-path="url(#d1fd509909)"><path stroke-linecap="butt" transform="matrix(0.74956, 0, 0, 0.748977, 4.122126, 2.290905)" fill="none" stroke-linejoin="miter" d="M -0.00137661 -0.00246024 L 290.981956 -0.00246024 L 290.981956 94.078939 L -0.00137661 94.078939 L -0.00137661 -0.00246024 " stroke="#000000" stroke-width="2" stroke-opacity="1" stroke-miterlimit="4"/></g><g clip-path="url(#4a98e918b8)"><path fill="#000000" d="M 10.003906 13.160156 L 138.414062 13.160156 L 138.414062 62.449219 L 10.003906 62.449219 Z M 10.003906 13.160156 " fill-opacity="1" fill-rule="nonzero"/></g><g fill="#ffffff" fill-opacity="1"><g transform="translate(18.816077, 47.434834)"><g><path d="M 2.59375 0 L 13.46875 0 L 13.46875 -2.132812 L 4.828125 -2.132812 L 4.828125 -17.789062 L 2.59375 -17.789062 Z M 2.59375 0 "/></g></g></g><g fill="#ffffff" fill-opacity="1"><g transform="translate(34.999512, 47.434834)"><g><path d="M 2.59375 0 L 4.828125 0 L 4.828125 -17.789062 L 2.59375 -17.789062 Z M 2.59375 0 "/></g></g></g><g fill="#ffffff" fill-opacity="1"><g transform="translate(44.349139, 47.434834)"><g><path d="M 2.59375 0 L 4.804688 0 L 4.804688 -13.925781 L 14.636719 0 L 16.722656 0 L 16.722656 -17.789062 L 14.535156 -17.789062 L 14.535156 -3.863281 L 4.699219 -17.789062 L 2.59375 -17.789062 Z M 2.59375 0 "/></g></g></g><g fill="#ffffff" fill-opacity="1"><g transform="translate(65.588072, 47.434834)"><g><path d="M 2.59375 0 L 4.828125 0 L 4.828125 -8.003906 L 7.371094 -8.003906 C 8.054688 -8.003906 8.664062 -8.054688 9.222656 -8.15625 L 13.824219 0 L 16.414062 0 L 11.308594 -8.96875 C 12.324219 -9.632812 13.035156 -10.648438 13.542969 -11.996094 L 15.730469 -17.789062 L 13.367188 -17.789062 L 11.535156 -12.882812 C 10.824219 -10.953125 9.785156 -10.140625 7.371094 -10.140625 L 4.828125 -10.140625 L 4.828125 -17.789062 L 2.59375 -17.789062 Z M 2.59375 0 "/></g></g></g><g fill="#ffffff" fill-opacity="1"><g transform="translate(84.896264, 47.434834)"><g/></g></g><g fill="#ffffff" fill-opacity="1"><g transform="translate(93.128103, 47.434834)"><g><path d="M 9.25 0.304688 C 13.542969 0.304688 16.136719 -2.515625 16.136719 -7.242188 L 16.136719 -17.789062 L 13.898438 -17.789062 L 13.898438 -7.394531 C 13.898438 -3.761719 12.300781 -1.878906 9.25 -1.878906 C 6.226562 -1.878906 4.597656 -3.761719 4.597656 -7.394531 L 4.597656 -17.789062 L 2.390625 -17.789062 L 2.390625 -7.242188 C 2.390625 -2.515625 4.957031 0.304688 9.25 0.304688 Z M 9.25 0.304688 "/></g></g></g><g fill="#ffffff" fill-opacity="1"><g transform="translate(113.579499, 47.434834)"><g><path d="M 2.59375 0 L 4.828125 0 L 4.828125 -5.84375 L 8.613281 -5.84375 C 12.628906 -5.84375 15.222656 -8.15625 15.222656 -11.816406 C 15.222656 -15.449219 12.628906 -17.789062 8.613281 -17.789062 L 2.59375 -17.789062 Z M 4.828125 -7.929688 L 4.828125 -15.652344 L 8.5625 -15.652344 C 11.433594 -15.652344 12.933594 -14.332031 12.933594 -11.789062 C 12.933594 -9.25 11.433594 -7.929688 8.5625 -7.929688 Z M 4.828125 -7.929688 "/></g></g></g><g fill="#000000" fill-opacity="1"><g transform="translate(145.966733, 46.120395)"><g><path d="M 1.953125 0 L 7.289062 0 L 7.289062 -4.570312 L 9.746094 -4.570312 C 14.445312 -4.570312 17.429688 -7.289062 17.429688 -11.539062 C 17.429688 -15.792969 14.445312 -18.484375 9.746094 -18.484375 L 1.953125 -18.484375 Z M 7.234375 -9.03125 L 7.234375 -13.996094 L 9.242188 -13.996094 C 11.011719 -13.996094 12.042969 -13.046875 12.042969 -11.515625 C 12.042969 -9.957031 11.011719 -9.03125 9.242188 -9.03125 Z M 7.234375 -9.03125 "/></g></g></g><g fill="#000000" fill-opacity="1"><g transform="translate(163.997897, 46.120395)"><g><path d="M 1.953125 0 L 7.289062 0 L 7.289062 -5.253906 L 9.296875 -5.253906 L 11.9375 0 L 17.984375 0 L 14.578125 -6.230469 C 16.53125 -7.316406 17.640625 -9.269531 17.640625 -11.855469 C 17.640625 -15.949219 14.867188 -18.484375 10.378906 -18.484375 L 1.953125 -18.484375 Z M 7.183594 -9.507812 L 7.183594 -14.128906 L 9.664062 -14.128906 C 11.355469 -14.128906 12.28125 -13.308594 12.28125 -11.832031 C 12.28125 -10.351562 11.355469 -9.507812 9.664062 -9.507812 Z M 7.183594 -9.507812 "/></g></g></g><g fill="#000000" fill-opacity="1"><g transform="translate(183.005864, 46.120395)"><g><path d="M 10.960938 0.394531 C 16.847656 0.394531 21.019531 -3.589844 21.019531 -9.242188 C 21.019531 -14.894531 16.847656 -18.882812 10.960938 -18.882812 C 5.070312 -18.882812 0.898438 -14.894531 0.898438 -9.242188 C 0.898438 -3.589844 5.070312 0.394531 10.960938 0.394531 Z M 6.3125 -9.242188 C 6.3125 -12.015625 8.238281 -13.945312 10.960938 -13.945312 C 13.707031 -13.945312 15.605469 -12.015625 15.605469 -9.242188 C 15.605469 -6.46875 13.707031 -4.542969 10.960938 -4.542969 C 8.238281 -4.542969 6.3125 -6.46875 6.3125 -9.242188 Z M 6.3125 -9.242188 "/></g></g></g></svg>