<svg xmlns="http://www.w3.org/2000/svg" xmlns:xlink="http://www.w3.org/1999/xlink" width="300" zoomAndPan="magnify" viewBox="0 0 224.87999 60" height="80" preserveAspectRatio="xMidYMid meet" version="1.0"><defs><g/><clipPath id="5b83c97246"><path d="M 0 0.015625 L 224.761719 0.015625 L 224.761719 59.984375 L 0 59.984375 Z M 0 0.015625 " clip-rule="nonzero"/></clipPath><clipPath id="28a5d58e5d"><path d="M 59.277344 8.769531 L 223.414062 8.769531 L 223.414062 53.746094 L 59.277344 53.746094 Z M 59.277344 8.769531 " clip-rule="nonzero"/></clipPath><clipPath id="a4370390ad"><path d="M 63.699219 13.019531 L 160.5 13.019531 L 160.5 49.738281 L 63.699219 49.738281 Z M 63.699219 13.019531 " clip-rule="nonzero"/></clipPath><clipPath id="959e7205bb"><path d="M 6 4.324219 L 57 4.324219 L 57 55.625 L 6 55.625 Z M 6 4.324219 " clip-rule="nonzero"/></clipPath></defs><g clip-path="url(#5b83c97246)"><path fill="#ffffff" d="M 0 0.015625 L 224.878906 0.015625 L 224.878906 67.480469 L 0 67.480469 Z M 0 0.015625 " fill-opacity="1" fill-rule="nonzero"/><path fill="#ffffff" d="M 0 0.015625 L 224.878906 0.015625 L 224.878906 59.984375 L 0 59.984375 Z M 0 0.015625 " fill-opacity="1" fill-rule="nonzero"/><path fill="#ffffff" d="M 0 0.015625 L 224.878906 0.015625 L 224.878906 59.984375 L 0 59.984375 Z M 0 0.015625 " fill-opacity="1" fill-rule="nonzero"/></g><g clip-path="url(#28a5d58e5d)"><path stroke-linecap="butt" transform="matrix(0.749493, 0, 0, 0.745716, 59.278528, 8.768896)" fill="none" stroke-linejoin="miter" d="M -0.00158061 0.000852352 L 218.99542 0.000852352 L 218.99542 60.314117 L -0.00158061 60.314117 L -0.00158061 0.000852352 " stroke="#000000" stroke-width="2" stroke-opacity="1" stroke-miterlimit="4"/></g><g clip-path="url(#a4370390ad)"><path fill="#000000" d="M 63.699219 13.019531 L 160.347656 13.019531 L 160.347656 50.113281 L 63.699219 50.113281 Z M 63.699219 13.019531 " fill-opacity="1" fill-rule="nonzero"/></g><g fill="#ffffff" fill-opacity="1"><g transform="translate(73.611748, 37.098989)"><g><path d="M 1.796875 0 L 9.339844 0 L 9.339844 -1.480469 L 3.347656 -1.480469 L 3.347656 -12.335938 L 1.796875 -12.335938 Z M 1.796875 0 "/></g></g></g><g fill="#ffffff" fill-opacity="1"><g transform="translate(84.834082, 37.098989)"><g><path d="M 1.796875 0 L 3.347656 0 L 3.347656 -12.335938 L 1.796875 -12.335938 Z M 1.796875 0 "/></g></g></g><g fill="#ffffff" fill-opacity="1"><g transform="translate(91.317541, 37.098989)"><g><path d="M 1.796875 0 L 3.332031 0 L 3.332031 -9.65625 L 10.152344 0 L 11.59375 0 L 11.59375 -12.335938 L 10.082031 -12.335938 L 10.082031 -2.679688 L 3.261719 -12.335938 L 1.796875 -12.335938 Z M 1.796875 0 "/></g></g></g><g fill="#ffffff" fill-opacity="1"><g transform="translate(106.045578, 37.098989)"><g><path d="M 1.796875 0 L 3.347656 0 L 3.347656 -5.550781 L 5.109375 -5.550781 C 5.585938 -5.550781 6.007812 -5.585938 6.398438 -5.65625 L 9.585938 0 L 11.382812 0 L 7.84375 -6.222656 C 8.546875 -6.679688 9.039062 -7.382812 9.394531 -8.316406 L 10.910156 -12.335938 L 9.269531 -12.335938 L 8 -8.933594 C 7.507812 -7.59375 6.785156 -7.03125 5.109375 -7.03125 L 3.347656 -7.03125 L 3.347656 -12.335938 L 1.796875 -12.335938 Z M 1.796875 0 "/></g></g></g><g fill="#ffffff" fill-opacity="1"><g transform="translate(119.434753, 37.098989)"><g/></g></g><g fill="#ffffff" fill-opacity="1"><g transform="translate(125.143081, 37.098989)"><g><path d="M 6.414062 0.210938 C 9.394531 0.210938 11.191406 -1.746094 11.191406 -5.023438 L 11.191406 -12.335938 L 9.640625 -12.335938 L 9.640625 -5.128906 C 9.640625 -2.609375 8.53125 -1.304688 6.414062 -1.304688 C 4.316406 -1.304688 3.191406 -2.609375 3.191406 -5.128906 L 3.191406 -12.335938 L 1.65625 -12.335938 L 1.65625 -5.023438 C 1.65625 -1.746094 3.4375 0.210938 6.414062 0.210938 Z M 6.414062 0.210938 "/></g></g></g><g fill="#ffffff" fill-opacity="1"><g transform="translate(139.325007, 37.098989)"><g><path d="M 1.796875 0 L 3.347656 0 L 3.347656 -4.054688 L 5.972656 -4.054688 C 8.757812 -4.054688 10.554688 -5.65625 10.554688 -8.195312 C 10.554688 -10.714844 8.757812 -12.335938 5.972656 -12.335938 L 1.796875 -12.335938 Z M 3.347656 -5.5 L 3.347656 -10.855469 L 5.9375 -10.855469 C 7.929688 -10.855469 8.96875 -9.9375 8.96875 -8.175781 C 8.96875 -6.414062 7.929688 -5.5 5.9375 -5.5 Z M 3.347656 -5.5 "/></g></g></g><g fill="#000000" fill-opacity="1"><g transform="translate(168.995448, 37.193886)"><g><path d="M 1.304688 0 L 4.863281 0 L 4.863281 -3.046875 L 6.503906 -3.046875 C 9.640625 -3.046875 11.628906 -4.863281 11.628906 -7.699219 C 11.628906 -10.539062 9.640625 -12.335938 6.503906 -12.335938 L 1.304688 -12.335938 Z M 4.828125 -6.027344 L 4.828125 -9.339844 L 6.167969 -9.339844 C 7.347656 -9.339844 8.035156 -8.707031 8.035156 -7.683594 C 8.035156 -6.644531 7.347656 -6.027344 6.167969 -6.027344 Z M 4.828125 -6.027344 "/></g></g></g><g fill="#000000" fill-opacity="1"><g transform="translate(181.030572, 37.193886)"><g><path d="M 1.304688 0 L 4.863281 0 L 4.863281 -3.507812 L 6.203125 -3.507812 L 7.964844 0 L 12 0 L 9.726562 -4.160156 C 11.03125 -4.882812 11.773438 -6.183594 11.773438 -7.914062 C 11.773438 -10.644531 9.921875 -12.335938 6.925781 -12.335938 L 1.304688 -12.335938 Z M 4.792969 -6.34375 L 4.792969 -9.429688 L 6.449219 -9.429688 C 7.578125 -9.429688 8.195312 -8.882812 8.195312 -7.894531 C 8.195312 -6.90625 7.578125 -6.34375 6.449219 -6.34375 Z M 4.792969 -6.34375 "/></g></g></g><g fill="#000000" fill-opacity="1"><g transform="translate(193.717673, 37.193886)"><g><path d="M 7.3125 0.265625 C 11.242188 0.265625 14.027344 -2.398438 14.027344 -6.167969 C 14.027344 -9.9375 11.242188 -12.601562 7.3125 -12.601562 C 3.382812 -12.601562 0.597656 -9.9375 0.597656 -6.167969 C 0.597656 -2.398438 3.382812 0.265625 7.3125 0.265625 Z M 4.210938 -6.167969 C 4.210938 -8.019531 5.5 -9.304688 7.3125 -9.304688 C 9.144531 -9.304688 10.414062 -8.019531 10.414062 -6.167969 C 10.414062 -4.316406 9.144531 -3.03125 7.3125 -3.03125 C 5.5 -3.03125 4.210938 -4.316406 4.210938 -6.167969 Z M 4.210938 -6.167969 "/></g></g></g><g clip-path="url(#959e7205bb)"><path fill="#000000" d="M 16.230469 46.394531 L 16.8125 46.96875 L 16.871094 47.027344 C 18.675781 48.898438 18.660156 51.914062 16.8125 53.761719 C 14.96875 55.605469 11.953125 55.625 10.082031 53.820312 L 10.023438 53.761719 L 9.441406 53.1875 L 7.863281 51.597656 C 5.996094 49.730469 5.996094 46.675781 7.863281 44.804688 C 9.726562 42.9375 12.785156 42.9375 14.652344 44.804688 Z M 48.253906 20.113281 L 48.816406 19.550781 L 49.460938 18.902344 L 55.378906 12.984375 C 57.242188 11.117188 57.242188 8.0625 55.378906 6.191406 C 53.507812 4.324219 50.453125 4.324219 48.589844 6.191406 L 42.671875 12.109375 L 42.027344 12.757812 L 38.070312 16.714844 C 36.203125 18.582031 36.203125 21.636719 38.070312 23.507812 L 41.464844 26.90625 L 42.070312 27.503906 L 48.632812 34.074219 C 50.5 35.9375 53.550781 35.9375 55.421875 34.074219 C 57.289062 32.207031 57.289062 29.144531 55.421875 27.28125 L 48.859375 20.710938 Z M 8.132812 6.234375 L 8.132812 6.230469 C 9.996094 4.363281 13.058594 4.363281 14.921875 6.230469 L 55.332031 46.671875 C 57.203125 48.535156 57.203125 51.597656 55.332031 53.464844 C 53.46875 55.328125 50.414062 55.328125 48.542969 53.464844 L 8.132812 13.023438 C 6.269531 11.15625 6.269531 8.101562 8.132812 6.234375 Z M 8.074219 25.59375 C 9.941406 23.726562 12.992188 23.726562 14.863281 25.59375 L 19.464844 30.199219 L 29.421875 40.160156 L 35.984375 46.730469 C 37.851562 48.59375 37.851562 51.65625 35.984375 53.523438 C 34.113281 55.386719 31.0625 55.386719 29.195312 53.523438 L 22.632812 46.953125 L 12.675781 36.992188 L 8.074219 32.386719 C 6.210938 30.519531 6.210938 27.460938 8.074219 25.59375 Z M 8.074219 25.59375 " fill-opacity="1" fill-rule="evenodd"/><path fill="#000000" d="M 47.039062 46.394531 L 46.457031 46.96875 L 46.398438 47.027344 C 44.589844 48.898438 44.609375 51.914062 46.457031 53.761719 C 48.300781 55.605469 51.316406 55.625 53.1875 53.820312 L 53.246094 53.761719 L 53.824219 53.1875 L 55.40625 51.597656 C 57.273438 49.730469 57.273438 46.675781 55.40625 44.804688 C 53.542969 42.9375 50.484375 42.9375 48.617188 44.804688 Z M 15.015625 20.113281 L 14.453125 19.550781 L 13.808594 18.902344 L 7.890625 12.984375 C 6.027344 11.117188 6.027344 8.0625 7.890625 6.191406 C 9.761719 4.324219 12.816406 4.324219 14.679688 6.191406 L 20.597656 12.109375 L 21.242188 12.757812 L 25.199219 16.714844 C 27.0625 18.582031 27.0625 21.636719 25.199219 23.507812 L 21.804688 26.90625 L 21.199219 27.503906 L 14.636719 34.074219 C 12.769531 35.9375 9.71875 35.9375 7.847656 34.074219 C 5.980469 32.207031 5.980469 29.144531 7.847656 27.28125 L 14.410156 20.710938 Z M 55.136719 6.234375 L 55.136719 6.230469 C 53.269531 4.363281 50.210938 4.363281 48.347656 6.230469 L 7.9375 46.671875 C 6.066406 48.535156 6.066406 51.597656 7.9375 53.464844 C 9.800781 55.328125 12.855469 55.328125 14.726562 53.464844 L 55.136719 13.023438 C 57 11.15625 57 8.101562 55.136719 6.234375 Z M 55.195312 25.59375 C 53.328125 23.726562 50.277344 23.726562 48.40625 25.59375 L 43.804688 30.199219 L 33.847656 40.160156 L 27.285156 46.730469 C 25.417969 48.59375 25.417969 51.65625 27.285156 53.523438 C 29.15625 55.386719 32.207031 55.386719 34.074219 53.523438 L 40.636719 46.953125 L 50.59375 36.992188 L 55.195312 32.386719 C 57.058594 30.519531 57.058594 27.460938 55.195312 25.59375 Z M 55.195312 25.59375 " fill-opacity="1" fill-rule="evenodd"/></g></svg>