<svg xmlns="http://www.w3.org/2000/svg" xmlns:xlink="http://www.w3.org/1999/xlink" width="300" zoomAndPan="magnify" viewBox="0 0 224.87999 225" height="300" preserveAspectRatio="xMidYMid meet" version="1.0"><path fill="#000000" d="M 49.234375 176.300781 L 51.617188 178.65625 L 51.855469 178.894531 C 59.265625 186.578125 59.1875 198.945312 51.617188 206.519531 C 44.046875 214.09375 31.683594 214.175781 24.007812 206.757812 L 23.769531 206.519531 L 21.386719 204.164062 L 14.902344 197.648438 C 7.253906 189.992188 7.253906 177.464844 14.902344 169.785156 C 22.550781 162.128906 35.097656 162.128906 42.75 169.785156 Z M 180.574219 68.503906 L 182.878906 66.199219 L 185.523438 63.550781 L 209.796875 39.261719 C 217.445312 31.609375 217.445312 19.082031 209.796875 11.398438 C 202.121094 3.746094 189.601562 3.746094 181.953125 11.398438 L 157.679688 35.6875 L 155.03125 38.335938 L 152.730469 40.640625 L 138.804688 54.570312 C 131.15625 62.226562 131.15625 74.753906 138.804688 82.433594 L 152.730469 96.367188 L 155.21875 98.828125 L 182.136719 125.765625 C 189.785156 133.417969 202.304688 133.417969 209.984375 125.765625 C 217.632812 118.109375 217.632812 105.554688 209.984375 97.902344 L 183.0625 70.964844 Z M 16.015625 11.585938 L 16.015625 11.558594 C 23.664062 3.90625 36.210938 3.90625 43.859375 11.558594 L 209.613281 177.4375 C 217.289062 185.09375 217.289062 197.648438 209.613281 205.300781 C 201.960938 212.957031 189.441406 212.957031 181.765625 205.300781 L 16.015625 39.421875 C 8.363281 31.765625 8.363281 19.238281 16.015625 11.585938 Z M 15.777344 90.988281 C 23.425781 83.335938 35.945312 83.335938 43.621094 90.988281 L 62.496094 109.875 L 103.335938 150.742188 L 130.257812 177.675781 C 137.90625 185.332031 137.90625 197.886719 130.257812 205.539062 C 122.582031 213.195312 110.058594 213.195312 102.410156 205.539062 L 75.492188 178.605469 L 34.648438 137.738281 L 15.777344 118.851562 C 8.125 111.199219 8.125 98.644531 15.777344 90.988281 Z M 15.777344 90.988281 " fill-opacity="1" fill-rule="evenodd"/><path fill="#000000" d="M 175.585938 176.300781 L 173.203125 178.65625 L 172.964844 178.894531 C 165.554688 186.578125 165.632812 198.945312 173.203125 206.519531 C 180.773438 214.09375 193.136719 214.175781 200.8125 206.757812 L 201.050781 206.519531 L 203.433594 204.164062 L 209.917969 197.648438 C 217.566406 189.992188 217.566406 177.464844 209.917969 169.785156 C 202.269531 162.128906 189.722656 162.128906 182.074219 169.785156 Z M 44.246094 68.503906 L 41.941406 66.199219 L 39.296875 63.550781 L 15.023438 39.261719 C 7.375 31.609375 7.375 19.082031 15.023438 11.398438 C 22.699219 3.746094 35.21875 3.746094 42.871094 11.398438 L 67.140625 35.6875 L 69.789062 38.335938 L 72.089844 40.640625 L 86.015625 54.570312 C 93.664062 62.226562 93.664062 74.753906 86.015625 82.433594 L 72.089844 96.367188 L 69.601562 98.828125 L 42.683594 125.765625 C 35.035156 133.417969 22.515625 133.417969 14.839844 125.765625 C 7.1875 118.109375 7.1875 105.554688 14.839844 97.902344 L 41.757812 70.964844 Z M 208.804688 11.585938 L 208.804688 11.558594 C 201.15625 3.90625 188.609375 3.90625 180.960938 11.558594 L 15.207031 177.4375 C 7.53125 185.09375 7.53125 197.648438 15.207031 205.300781 C 22.859375 212.957031 35.378906 212.957031 43.054688 205.300781 L 208.804688 39.421875 C 216.457031 31.765625 216.457031 19.238281 208.804688 11.585938 Z M 209.042969 90.988281 C 201.394531 83.335938 188.875 83.335938 181.199219 90.988281 L 162.324219 109.875 L 121.484375 150.742188 L 94.5625 177.675781 C 86.914062 185.332031 86.914062 197.886719 94.5625 205.539062 C 102.242188 213.195312 114.761719 213.195312 122.410156 205.539062 L 149.328125 178.605469 L 190.171875 137.738281 L 209.042969 118.851562 C 216.695312 111.199219 216.695312 98.644531 209.042969 90.988281 Z M 209.042969 90.988281 " fill-opacity="1" fill-rule="evenodd"/></svg>